# xmcd
#
# Track frame offsets: 
#        150
#        18076
#        34026
#        53371
#        74424
#        86444
#        100002
#        107997
#        123180
#        147292
#        163099
#        181631
#        192938
#        206510
#        223896
#        239555
#        263552
#
# Disc length: 3727 seconds
#
# Revision: 0
# Processed by: cddbd v1.5.2PL0 Copyright (c) Steve Scherf et al.
# Submitted via: ExactAudioCopy v0.95b3
#
DISCID=e40e8d11
DTITLE=Va  - The Greatest Classics - Disc 2  FLAC
DYEAR=1900
DGENRE=
TTITLE0=Beethoven - 'Moonlight' Piano Sonata
TTITLE1=Bach - Air On The G String
TTITLE2=Grieg - Morning From Peer Gynt
TTITLE3=Vaughan Williams - Fantasia On Greensleeves
TTITLE4=Tchaikovsky - Dance Of The Reed Flutes From The Nutcracker
TTITLE5=Rachmaninov - Rhapsody On A Theme Of Paganini
TTITLE6=Strauss - Also Sprach Zarathustra
TTITLE7=Bach - Toccata In D Minor
TTITLE8=Mozart - Piano Concerto No.21 Elvira Madigan
TTITLE9=Delibes - Flower Duet From Lakme
TTITLE10=Chopin - Romance From Piano Concerto No.1
TTITLE11=Parry - Jerusalem
TTITLE12=Beethoven - Fur Elise
TTITLE13=Offenbach - Barcarolle From Les Contes D'Hoffmann
TTITLE14=Mozart - Rondo Alla Turca
TTITLE15=Dvorak - Symphony No.9 From The New World
TTITLE16=Elgar - Nimrod From Enigma Variations
EXTD=
EXTT0=
EXTT1=
EXTT2=
EXTT3=
EXTT4=
EXTT5=
EXTT6=
EXTT7=
EXTT8=
EXTT9=
EXTT10=
EXTT11=
EXTT12=
EXTT13=
EXTT14=
EXTT15=
EXTT16=
PLAYORDER=
